<svg id="Capa_1" enable-background="new 0 0 512 512" height="512" viewBox="0 0 512 512" width="512" xmlns="http://www.w3.org/2000/svg"><g><g><path d="m316.98 158.77c0 26.06-19.81 47.99-46.5 54.08v23.15h-30v-23.15c-26.68-6.09-46.5-28.02-46.5-54.08h30c0 14.2 14.13 25.76 31.5 25.76s31.5-11.56 31.5-25.76c0-14.21-14.13-25.77-31.5-25.77-33.91 0-61.5-25.02-61.5-55.77 0-26.06 19.82-47.99 46.5-54.08v-23.15h30v23.15c26.69 6.09 46.5 28.02 46.5 54.08h-30c0-14.2-14.13-25.76-31.5-25.76s-31.5 11.56-31.5 25.76c0 14.21 14.13 25.77 31.5 25.77 33.92 0 61.5 25.02 61.5 55.77z" fill="#00dc7b"/><g fill="#00aa8e"><path d="m316.98 158.77c0 26.06-19.81 47.99-46.5 54.08v23.15h-15v-51.47c17.37 0 31.5-11.56 31.5-25.76 0-14.21-14.13-25.77-31.5-25.77v-30c33.92 0 61.5 25.02 61.5 55.77z"/><path d="m255.48 51.47v-51.47h15v23.15c26.69 6.09 46.5 28.02 46.5 54.08h-30c0-14.2-14.13-25.76-31.5-25.76z"/></g></g><path d="m512 294.21c0 8.67-3.3 17.35-9.93 23.98l-116.64 121.75h-254l-77.01 72.06h-54.42v-115.95l39.03-39.06 139.64-30 77.33 21.88 28.72 8.12h83.23l86.21-86.75c13.03-13.04 34.09-13.27 47.4-.51 6.95 6.66 10.44 15.57 10.44 24.48z" fill="#ffe8c8"/><path d="m512 294.21c0 8.67-3.3 17.35-9.93 23.98l-116.64 121.75h-129.43v-91.07l28.72 8.12h83.23l86.21-86.75c13.03-13.04 34.09-13.27 47.4-.51 6.95 6.66 10.44 15.57 10.44 24.48z" fill="#ffc7a1"/><path d="m318.31 323.38c0 9.28-3.76 17.68-9.84 23.76-6.08 6.09-14.47 9.85-23.75 9.85h-245.69l40.22-40.25c17.25-17.26 40.66-26.97 65.07-26.97h140.4c18.55 0 33.59 15.05 33.59 33.61z" fill="#ffc7a1"/><path d="m318.31 323.38c0 9.28-3.76 17.68-9.84 23.76-6.08 6.09-14.47 9.85-23.75 9.85h-28.72v-67.22h28.72c18.55 0 33.59 15.05 33.59 33.61z" fill="#fa8"/></g></svg>