<svg id="Capa_1" enable-background="new 0 0 512 512" height="512" viewBox="0 0 512 512" width="512" xmlns="http://www.w3.org/2000/svg"><g><path d="m512 256c0 68.38-26.63 132.67-74.98 181.02h-362.04c-48.35-48.35-74.98-112.64-74.98-181.02s26.63-132.67 74.98-181.02h362.04c48.35 48.35 74.98 112.64 74.98 181.02z" fill="#ffe26f"/><path d="m512 256c0 68.38-26.63 132.67-74.98 181.02h-181.02v-362.04h181.02c48.35 48.35 74.98 112.64 74.98 181.02z" fill="#ffc271"/><g><g fill="#fff4b0"><path d="m437.02 74.98-73.54 73.54h-214.96l-73.54-73.54c48.35-48.35 112.64-74.98 181.02-74.98s132.67 26.63 181.02 74.98z"/><path d="m437.02 437.02c-48.35 48.35-112.64 74.98-181.02 74.98s-132.67-26.63-181.02-74.98l73.54-73.54h214.96z"/></g></g><g fill="#ffe26f"><path d="m363.48 363.48 73.54 73.54c-48.35 48.35-112.64 74.98-181.02 74.98v-148.52z"/><path d="m363.48 148.52h-107.48v-148.52c68.38 0 132.67 26.63 181.02 74.98z"/></g><circle cx="256" cy="256" fill="#ffc271" r="167"/><path d="m423 256c0 92.08-74.92 167-167 167v-334c92.08 0 167 74.92 167 167z" fill="#ff9e73"/><g><path d="m311.33 291.295c0 23.01-17.09 42.44-40.33 48.4v18.46h-30v-18.46c-23.24-5.96-40.33-25.39-40.33-48.4h30c0 11.19 11.36 20.29 25.33 20.29s25.33-9.1 25.33-20.29-11.36-20.29-25.33-20.29c-30.51 0-55.33-22.56-55.33-50.3 0-23 17.09-42.44 40.33-48.39v-18.47h30v18.47c23.24 5.95 40.33 25.39 40.33 48.39h-30c0-11.18-11.36-20.29-25.33-20.29s-25.33 9.11-25.33 20.29c0 11.19 11.36 20.3 25.33 20.3 30.51 0 55.33 22.56 55.33 50.29z" fill="#fff4b0"/><g fill="#ffe26f"><path d="m311.33 291.295c0 23.01-17.09 42.44-40.33 48.4v18.46h-15v-46.57c13.97 0 25.33-9.1 25.33-20.29s-11.36-20.29-25.33-20.29v-30c30.51 0 55.33 22.56 55.33 50.29z"/><path d="m256 200.415v-46.57h15v18.47c23.24 5.95 40.33 25.39 40.33 48.39h-30c0-11.18-11.36-20.29-25.33-20.29z"/></g></g></g></svg>